<mxfile host="65bd71144e">
    <diagram id="swZo_xp6RojXL4qlL8N0" name="第 1 页">
        <mxGraphModel dx="1125" dy="607" grid="1" gridSize="10" guides="1" tooltips="1" connect="1" arrows="1" fold="1" page="1" pageScale="1" pageWidth="1169" pageHeight="827" math="0" shadow="0">
            <root>
                <mxCell id="0"/>
                <mxCell id="1" parent="0"/>
                <mxCell id="11" style="edgeStyle=none;html=1;entryX=0;entryY=0.5;entryDx=0;entryDy=0;" parent="1" source="3" target="12" edge="1">
                    <mxGeometry relative="1" as="geometry">
                        <mxPoint x="272" y="255" as="targetPoint"/>
                    </mxGeometry>
                </mxCell>
                <mxCell id="3" value="开始" style="strokeWidth=2;html=1;shape=mxgraph.flowchart.start_2;whiteSpace=wrap;" parent="1" vertex="1">
                    <mxGeometry x="102" y="205" width="100" height="100" as="geometry"/>
                </mxCell>
                <mxCell id="8" style="edgeStyle=none;html=1;entryX=0;entryY=0.5;entryDx=0;entryDy=0;exitX=1;exitY=0.5;exitDx=0;exitDy=0;" parent="1" source="12" target="13" edge="1">
                    <mxGeometry relative="1" as="geometry">
                        <mxPoint x="412" y="260" as="sourcePoint"/>
                        <mxPoint x="532" y="260" as="targetPoint"/>
                    </mxGeometry>
                </mxCell>
                <mxCell id="10" value="请求到达/查询缓存" style="text;html=1;strokeColor=none;fillColor=none;align=center;verticalAlign=middle;whiteSpace=wrap;rounded=0;" parent="1" vertex="1">
                    <mxGeometry x="419" y="224" width="120" height="30" as="geometry"/>
                </mxCell>
                <mxCell id="12" value="等待客户端的http请求" style="rounded=1;whiteSpace=wrap;html=1;" parent="1" vertex="1">
                    <mxGeometry x="282" y="225" width="120" height="60" as="geometry"/>
                </mxCell>
                <mxCell id="15" style="edgeStyle=none;html=1;exitX=1;exitY=0.5;exitDx=0;exitDy=0;entryX=0;entryY=0.5;entryDx=0;entryDy=0;" parent="1" source="13" target="14" edge="1">
                    <mxGeometry relative="1" as="geometry"/>
                </mxCell>
                <mxCell id="19" style="edgeStyle=none;html=1;" parent="1" source="13" target="20" edge="1">
                    <mxGeometry relative="1" as="geometry">
                        <mxPoint x="690" y="380" as="targetPoint"/>
                    </mxGeometry>
                </mxCell>
                <mxCell id="13" value="等待查询缓存命中结果" style="rounded=1;whiteSpace=wrap;html=1;" parent="1" vertex="1">
                    <mxGeometry x="552" y="225" width="130" height="60" as="geometry"/>
                </mxCell>
                <mxCell id="18" style="edgeStyle=none;html=1;entryX=0;entryY=0.5;entryDx=0;entryDy=0;entryPerimeter=0;" parent="1" source="14" target="17" edge="1">
                    <mxGeometry relative="1" as="geometry"/>
                </mxCell>
                <mxCell id="14" value="关闭客户端描述符" style="rounded=1;whiteSpace=wrap;html=1;" parent="1" vertex="1">
                    <mxGeometry x="872" y="224" width="120" height="60" as="geometry"/>
                </mxCell>
                <mxCell id="16" value="缓存命中/发送缓存给客户端 + 更新缓存LRU链表" style="text;html=1;strokeColor=none;fillColor=none;align=center;verticalAlign=middle;whiteSpace=wrap;rounded=0;" parent="1" vertex="1">
                    <mxGeometry x="690" y="220" width="170" height="30" as="geometry"/>
                </mxCell>
                <mxCell id="17" value="关闭" style="strokeWidth=2;html=1;shape=mxgraph.flowchart.start_2;whiteSpace=wrap;" parent="1" vertex="1">
                    <mxGeometry x="1060" y="205" width="95" height="95" as="geometry"/>
                </mxCell>
                <mxCell id="22" style="edgeStyle=none;html=1;" edge="1" parent="1" source="20" target="23">
                    <mxGeometry relative="1" as="geometry">
                        <mxPoint x="560" y="469" as="targetPoint"/>
                    </mxGeometry>
                </mxCell>
                <mxCell id="20" value="&lt;br&gt;等待服务器响应" style="rounded=1;whiteSpace=wrap;html=1;" parent="1" vertex="1">
                    <mxGeometry x="770" y="439" width="120" height="60" as="geometry"/>
                </mxCell>
                <mxCell id="21" value="缓存未命中/保存请求+转发请求数据至服务器" style="text;html=1;strokeColor=none;fillColor=none;align=center;verticalAlign=middle;whiteSpace=wrap;rounded=0;rotation=0;" parent="1" vertex="1">
                    <mxGeometry x="740" y="340" width="270" height="30" as="geometry"/>
                </mxCell>
                <mxCell id="25" style="edgeStyle=none;html=1;entryX=1;entryY=0.5;entryDx=0;entryDy=0;entryPerimeter=0;" edge="1" parent="1" source="23" target="35">
                    <mxGeometry relative="1" as="geometry">
                        <mxPoint x="290" y="469" as="targetPoint"/>
                    </mxGeometry>
                </mxCell>
                <mxCell id="29" style="edgeStyle=none;html=1;entryX=0.5;entryY=0;entryDx=0;entryDy=0;entryPerimeter=0;" edge="1" parent="1" source="23" target="36">
                    <mxGeometry relative="1" as="geometry">
                        <mxPoint x="515" y="599" as="targetPoint"/>
                    </mxGeometry>
                </mxCell>
                <mxCell id="23" value="等待缓存检查结果" style="rounded=1;whiteSpace=wrap;html=1;" vertex="1" parent="1">
                    <mxGeometry x="455" y="439" width="120" height="60" as="geometry"/>
                </mxCell>
                <mxCell id="24" value="响应到达/转发响应给客户端 +&amp;nbsp;&lt;br&gt;判断响应大小决定是否缓存+检查是否已经有缓存" style="text;html=1;strokeColor=none;fillColor=none;align=center;verticalAlign=middle;whiteSpace=wrap;rounded=0;" vertex="1" parent="1">
                    <mxGeometry x="590" y="429" width="170" height="30" as="geometry"/>
                </mxCell>
                <mxCell id="27" value="无缓存/保存缓存结果&amp;nbsp;" style="text;html=1;strokeColor=none;fillColor=none;align=center;verticalAlign=middle;whiteSpace=wrap;rounded=0;" vertex="1" parent="1">
                    <mxGeometry x="320" y="429" width="121" height="30" as="geometry"/>
                </mxCell>
                <mxCell id="33" value="有缓存/更新缓存LRU链表" style="text;html=1;strokeColor=none;fillColor=none;align=center;verticalAlign=middle;whiteSpace=wrap;rounded=0;" vertex="1" parent="1">
                    <mxGeometry x="521" y="516.5" width="151" height="30" as="geometry"/>
                </mxCell>
                <mxCell id="35" value="关闭" style="strokeWidth=2;html=1;shape=mxgraph.flowchart.start_2;whiteSpace=wrap;" vertex="1" parent="1">
                    <mxGeometry x="210" y="421.5" width="95" height="95" as="geometry"/>
                </mxCell>
                <mxCell id="36" value="关闭" style="strokeWidth=2;html=1;shape=mxgraph.flowchart.start_2;whiteSpace=wrap;" vertex="1" parent="1">
                    <mxGeometry x="467.5" y="569" width="95" height="95" as="geometry"/>
                </mxCell>
            </root>
        </mxGraphModel>
    </diagram>
</mxfile>